<?xml version="1.0" encoding="UTF-8"?>
<svg id="Layer_1" data-name="Layer 1" xmlns="http://www.w3.org/2000/svg" viewBox="0 0 2500 1021.83">
  <defs>
    <style>
      .cls-1 {
        fill: #164989;
      }
    </style>
  </defs>
  <path class="cls-1" d="M800.83,501c0,276.67-179.17,500.83-400.83,500.83S0,777.67,0,501,179.17.17,400.83.17s400,224.17,400,500.83M400.83,967.67c201.67,0,365.83-209.17,365.83-465.83S602.5,36,400.83,36,35,245.17,35,501.83s164.17,465.83,365.83,465.83M400.83,58.5c190,0,344.17,199.17,344.17,443.33s-154.17,443.33-344.17,443.33S56.67,746,56.67,501.83c0-245,154.17-443.33,344.17-443.33M424.17,112.67l-5-2.5c-.83,14.17-3.33,28.33-3.33,42.5-.83,1.67-3.33,3.33-2.5,5.83,20,17.5,41.67,33.33,62.5,48.33,26.67,19.17,55,38.33,83.33,53.33,12.5-7.5,28.33-11.67,42.5-18.33v-2.5c-30-17.5-56.67-34.17-86.67-50.83l-1.67.83c0,11.67.83,24.17.83,35-13.33-6.67-27.5-18.33-40-26.67v-1.67c0-2.5,3.33-3.33,5.83-3.33,9.17-2.5,19.17-5,27.5-8.33v-.83l-83.33-70.83h0ZM434.17,110.17h-2.5c13.33,12.5,27.5,24.17,40.83,35.83,36.67,35,78.33,60,122.5,80.83-24.17-25.83-43.33-46.67-69.17-69.17l-91.67-47.5h0ZM390.83,173.5c-5.83-4.17-13.33-6.67-21.67-5.83-17.5,0-18.33,22.5-27.5,31.67-2.5,6.67-10.83,10.83-10.83,20.83,4.17,12.5,21.67,13.33,33.33,16.67,5-.83,11.67,1.67,14.17-3.33.83-3.33-1.67-3.33-3.33-3.33-4.17-1.67-5-5.83-4.17-10,2.5-3.33,6.67-4.17,10.83-4.17,6.67,5.83,11.67-3.33,20-.83,6.67.83,9.17,8.33,10.83,14.17-7.5-1.67-15.83-5-25-3.33-2.5,4.17,0,8.33,1.67,11.67,5-.83,11.67-1.67,18.33-2.5,3.33,0,6.67,1.67,7.5,5,16.67,3.33,36.67,2.5,49.17,13.33,0,5,7.5,10,2.5,14.17-16.67-16.67-40.83-19.17-63.33-14.17-4.17-2.5.83-7.5-2.5-10-14.17,2.5-26.67,7.5-40,13.33l-1.67-.83c.83-2.5,0-4.17.83-5.83-3.33-1.67-5.83-4.17-10-4.17-5.83,10,4.17,20.83,3.33,30.83,4.17,10.83,10-3.33,16.67-1.67,5,0,12.5-4.17,15.83,1.67-6.67,3.33-13.33,4.17-20,9.17-1.67,2.5.83,4.17,1.67,5.83,5.83,7.5,18.33,2.5,25.83,6.67,0,1.67-.83,3.33-2.5,5-10,.83-15,9.17-20.83,15.83-5-1.67-3.33-7.5-4.17-10.83-.83-4.17-5.83-4.17-8.33-4.17-2.5,10.83-6.67,20.83-7.5,30.83,1.67,6.67,9.17,4.17,13.33,5,6.67,1.67,2.5,10,5,14.17,5.83,1.67,13.33,1.67,20.83,0,.83.83,1.67,2.5.83,5-2.5,4.17-6.67,5-10.83,5.83-1.67,1.67-5,4.17-3.33,7.5,10.83,5.83-.83,22.5,10,28.33s27.5,3.33,37.5-1.67c6.67-1.67,10.83-9.17,20-6.67.83,1.67,2.5.83,2.5,3.33,17.5.83,33.33-1.67,48.33-4.17,5.83.83,11.67-4.17,15,.83,0,.83.83,1.67,0,2.5-21.67,8.33-46.67,7.5-70,10.83-14.17,4.17-7.5,20-9.17,31.67-8.33,4.17-5.83-8.33-10.83-11.67-22.5.83-40.83,8.33-61.67,13.33-12.5,6.67-19.17,21.67-22.5,35,0,7.5-3.33,18.33,4.17,21.67,15.83,5,41.67,8.33,56.67-3.33,11.67-4.17,23.33-15,36.67-10,6.67-10.83,18.33-23.33,30.83-30,5-1.67,5-7.5,10.83-8.33,5,.83,2.5,7.5,4.17,10,11.67,1.67,23.33-3.33,35-1.67,6.67,2.5,7.5,9.17,10,15,0,2.5-.83,5.83-1.67,7.5,4.17,8.33-5,12.5-1.67,22.5-14.17,22.5-35,40.83-62.5,45.83-5.83,2.5-1.67,10.83-5.83,15-30,20-75,29.17-85,70-5.83,21.67,12.5,30,25.83,38.33,17.5,3.33,25.83,25.83,45,20.83,8.33-21.67,10-45,19.17-66.67,25-43.33,54.17-85,92.5-115.83,12.5-9.17,25.83-22.5,43.33-22.5,2.5,0,.83,2.5.83,3.33-16.67,5-30,15.83-40.83,26.67-9.17,10-22.5,20.83-28.33,34.17-21.67,26.67-43.33,58.33-57.5,89.17-.83,10-2.5,21.67-.83,31.67,3.33,0,4.17-4.17,6.67-5.83,13.33-30,29.17-60,45.83-87.5,10-13.33,19.17-31.67,34.17-38.33l.83.83c-20,25.83-35.83,54.17-50,83.33-10,23.33-23.33,45-25,71.67,2.5,6.67,11.67,4.17,16.67,9.17,4.17,2.5,5,7.5,4.17,11.67-.83,3.33-4.17,6.67-7.5,6.67-6.67-1.67-5.83-9.17-10-13.33-2.5,0-5-2.5-6.67,0-.83,10,9.17,20,.83,29.17-7.5,5-5.83-6.67-10.83-10-2.5-1.67-7.5-1.67-10,0-25,23.33-60,35.83-95,40-10.83,5-34.17-3.33-34.17,15,1.67,16.67-.83,37.5,12.5,47.5,35,3.33,70.83,3.33,103.33-5.83,25-5,48.33-13.33,69.17-25.83,34.17-26.67,51.67-69.17,73.33-105.83,35.83-51.67,61.67-115,46.67-183.33-1.67-37.5-39.17-49.17-60-72.5-5.83-4.17-10,2.5-15,1.67-10-5,5-5.83,5-11.67-8.33-10.83-7.5-26.67-15.83-37.5-5-3.33-8.33,2.5-13.33,0-3.33-18.33-8.33-35.83-16.67-51.67-19.17-12.5-20,19.17-36.67,18.33,0-.83-1.67-.83-.83-2.5,0-2.5,4.17-3.33,5.83-5,4.17-3.33,4.17-10.83,4.17-15.83-3.33-5-9.17-5-15-5.83-3.33,0-4.17-3.33-3.33-6.67,5-7.5,14.17-.83,22.5-.83,8.33-5.83,16.67-3.33,25.83-6.67,6.67-2.5,8.33-8.33,7.5-15,2.5-.83,5.83,1.67,7.5-1.67,0-4.17-.83-9.17-3.33-12.5-28.33-15-50-41.67-82.5-51.67-5-2.5-15.83,1.67-14.17-7.5-3.33-9.17-15-10-24.17-12.5-1.67-2.5-.83-5.83,1.67-6.67.83-1.67.83-3.33-.83-5-9.17-2.5-13.33-15.83-18.33-24.17M408.33,171.83c-2.5,0-5,0-6.67,1.67-.83,2.5-.83,6.67,1.67,9.17,40,33.33,86.67,64.17,130.83,91.67,3.33.83,7.5,4.17,10.83,1.67,2.5-2.5.83-5.83-.83-7.5-47.5-26.67-92.5-62.5-135.83-96.67M455.83,277.67c-18.33,1.67-35-5.83-47.5-18.33-2.5.83-2.5,4.17-1.67,5.83,5.83,9.17,19.17,15,30.83,19.17,8.33,18.33,27.5,25.83,45.83,27.5,1.67-.83,4.17-.83,3.33-3.33-13.33-4.17-30-8.33-36.67-22.5,2.5-2.5,6.67-1.67,9.17-3.33,1.67-2.5-1.67-3.33-3.33-5M511.67,289.33c-14.17,4.17-29.17-3.33-42.5-8.33l-1.67,2.5c14.17,7.5,27.5,19.17,45.83,15.83,2.5-.83,4.17-2.5,4.17-5.83.83-3.33-1.67-4.17-5.83-4.17M571.67,289.33c-1.67-4.17-5-6.67-10-6.67-6.67-2.5-12.5,1.67-15.83,5.83.83,10-14.17,10-11.67,21.67-2.5,5.83-8.33,5.83-12.5,7.5,0,2.5,0,3.33.83,5,7.5.83,14.17,5.83,22.5,2.5,3.33,0,3.33,2.5,3.33,5-5.83,5-15,2.5-21.67.83v3.33c7.5,5.83,19.17,9.17,29.17,5,15-10,15.83-30.83,15.83-50M298.33,306.83c-8.33-6.67-20-5-29.17-8.33-16.67-4.17-30.83,5.83-42.5,13.33-30.83,13.33-19.17,51.67-35.83,73.33-2.5,14.17-2.5,32.5,8.33,42.5,9.17-.83,16.67,7.5,25.83,5,14.17-6.67-6.67-15-.83-25.83,8.33-.83,5.83,10,11.67,12.5,5.83,1.67,7.5-5,12.5-5.83,7.5,4.17,3.33,14.17,8.33,20.83,10.83,16.67,30.83,22.5,51.67,24.17,14.17-.83,21.67-10.83,28.33-23.33,4.17-14.17,10-35-1.67-46.67-4.17-2.5-8.33,2.5-10.83,0,.83-6.67,4.17-13.33,10.83-16.67,3.33-6.67.83-18.33-4.17-24.17.83-1.67,3.33-2.5,5-2.5,3.33-10.83,4.17-26.67-5.83-34.17-5-1.67-10-5.83-15-4.17,0,0-.83,0-.83-.83-4.17,0-10.83-1.67-15.83.83M326.67,331c-.83-2.5-2.5-4.17-5.83-3.33-5,6.67-3.33,17.5-9.17,24.17-2.5,1.67-6.67-2.5-8.33,1.67l3.33,4.17c14.17,5.83,8.33-16.67,20-15v-11.67M230,355.17c-6.67,5.83-6.67-5.83-13.33-4.17-8.33,10-3.33,26.67-10.83,35.83.83,2.5,2.5,3.33,4.17,3.33,8.33-5.83,2.5-20,10.83-25,4.17,3.33,0,11.67,5.83,13.33,5-5,5-15.83,3.33-23.33M288.33,353.5c-2.5,2.5-8.33,1.67-9.17-2.5-6.67.83-10,10-12.5,14.17-.83,4.17-5.83,5.83-9.17,2.5-6.67,7.5-9.17,21.67-7.5,33.33.83,2.5,4.17,2.5,5.83,1.67l.83-17.5c.83-5.83,5.83-2.5,9.17-.83,5-2.5,4.17-9.17,5.83-14.17,2.5-7.5,6.67-3.33,11.67-4.17,4.17-2.5,7.5-5.83,7.5-10.83l-2.5-1.67M310,382.67c-1.67-9.17-11.67-6.67-19.17-6.67-.83,2.5-4.17,1.67-3.33,5l5-1.67c5.83,7.5-8.33,6.67-7.5,14.17h21.67c5-1.67,4.17-6.67,3.33-10.83M325,410.17c-3.33.83-9.17-1.67-10.83,1.67,1.67,1.67,1.67,5.83,5,5,2.5-1.67,8.33-2.5,5.83-6.67M321.67,433.5c0-3.33,3.33-5,3.33-7.5-1.67-1.67-4.17,0-5.83.83-5.83-1.67-9.17,6.67-15.83,2.5v3.33c4.17-.83,7.5,2.5,10.83,4.17,3.33.83,6.67-.83,7.5-3.33M261.67,460.17c-10.83-1.67-13.33-16.67-25.83-15-5.83,9.17-14.17,19.17-25.83,24.17-25.83,15-20,48.33-32.5,71.67-10,54.17-35,111.67-12.5,168.33,14.17,8.33,8.33,29.17,21.67,38.33,12.5,8.33,30,15,45.83,12.5,26.67-14.17,50,5.83,77.5,4.17,30-10.83,64.17-13.33,94.17-26.67,5.83-2.5,15.83-4.17,19.17-10.83-4.17-9.17-8.33-20.83-14.17-29.17-11.67-13.33-30.83-10.83-45.83-17.5-20-9.17-21.67,17.5-35.83,17.5-4.17-1.67-5.83-5.83-5-9.17,2.5-9.17,13.33-11.67,20-20,4.17-11.67-.83-25-10-33.33-4.17-9.17,10.83-15.83,3.33-24.17-18.33.83-30,15-45,23.33-2.5,1.67-6.67,2.5-8.33-.83,2.5-9.17,14.17-18.33,23.33-23.33v-1.67c-.83,0-1.67,0-1.67-.83-20.83,2.5-30-14.17-43.33-22.5-5-2.5-11.67-1.67-15.83-4.17-.83-4.17,0-9.17,3.33-11.67,25,1.67,44.17,33.33,70,15.83,30,14.17,58.33-1.67,81.67-15.83,7.5-3.33,15.83-11.67,25.83-5.83,9.17-1.67,15-6.67,23.33-10.83,0-18.33-2.5-35.83-9.17-52.5-2.5-4.17-6.67-8.33-12.5-6.67-20.83,7.5-40,24.17-64.17,20-6.67,1.67,2.5,6.67,0,10h-4.17l-31.67-25.83c-10-5.83-20.83-11.67-30.83-19.17,1.67-14.17-15.83-6.67-23.33-12.5l-11.67-5.83h0ZM510.83,461.83c-10.83-2.5-20,4.17-30.83,4.17-5,1.67-8.33-3.33-12.5,0-15,5-21.67,21.67-23.33,35.83,5,7.5,8.33,20.83,20,22.5,20-.83,36.67-13.33,47.5-27.5,3.33-6.67,3.33-15,4.17-23.33-.83-2.5-4.17-4.17-2.5-8.33l-2.5-3.33h0ZM308.33,791.83c-8.33-6.67-20-11.67-30.83-16.67-14.17-2.5-35-12.5-45.83,2.5-9.17,4.17-27.5,2.5-28.33,15.83,1.67,5,8.33,8.33,5.83,15,.83,4.17,7.5,3.33,9.17,7.5,0,10,11.67,8.33,13.33,17.5,5,5.83,14.17,5.83,23.33,5.83,20-1.67,39.17-6.67,57.5-13.33,3.33-10.83,3.33-25-4.17-34.17M579.17,845.17c-12.5-15.83-28.33-35-52.5-33.33-3.33.83-3.33,3.33-3.33,5.83,7.5,15.83,22.5,30.83,35,43.33,7.5-3.33,13.33-10,20.83-15.83M481.67,854.33c-4.17-5.83,0-18.33-10-18.33-12.5,4.17-32.5,15-36.67,15.83-4.17,1.67-45,6.67-65.83-2.5-11.67.83-25.83.83-37.5,2.5-7.5,2.5-13.33,9.17-22.5,9.17-5.83,2.5-19.17,0-19.17,0-10-.83-20-6.67-30-5.83-6.67,1.67-9.17,8.33-11.67,14.17,57.5,44.17,146.67,58.33,220.83,35.83,8.33-4.17,20-5,25.83-10.83-5.83-12.5-8.33-25.83-13.33-40M521.67,841c-8.33,7.5-28.33-5-30,10.83,2.5,13.33,5.83,27.5,13.33,39.17,6.67-.83,14.17-4.17,20.83-7.5,1.67-8.33-7.5-12.5-5-20.83,7.5-1.67,10.83,9.17,18.33,12.5,4.17-1.67,8.33-4.17,10-7.5-4.17-11.67-12.5-15.83-22.5-25.83l-5-.83Z"/>
  <path class="cls-1" d="M929.17,42.67h93.33c47.5,0,80.83,24.17,80.83,67.5,0,24.17-11.67,45-31.67,55.83v.83c28.33,8.33,42.5,35,42.5,61.67,0,52.5-41.67,75.83-90,75.83h-95V42.67h0ZM1023.33,150.17c20.83,0,32.5-15,32.5-33.33s-10.83-32.5-33.33-32.5h-45v65.83h45.83ZM1027.5,263.5c24.17,0,38.33-15.83,38.33-38.33s-14.17-37.5-38.33-37.5h-50.83v75.83h50.83ZM1239.17,112.67c57.5,0,103.33,40.83,103.33,98.33s-45.83,98.33-103.33,98.33-103.33-40.83-103.33-98.33,46.67-98.33,103.33-98.33M1239.17,269.33c30,0,55.83-23.33,55.83-58.33s-25.83-58.33-55.83-58.33-55.83,24.17-55.83,58.33,25.83,58.33,55.83,58.33M1356.67,281s25.83,27.5,73.33,27.5c45,0,71.67-25,71.67-56.67,0-60-91.67-57.5-91.67-83.33,0-11.67,11.67-16.67,24.17-16.67,28.33,0,45.83,15.83,45.83,15.83l17.5-35s-20.83-21.67-63.33-21.67-71.67,20-71.67,55c0,60.83,91.67,56.67,91.67,85,0,10.83-11.67,16.67-25,16.67-30.83,0-50.83-20.83-50.83-20.83l-21.67,34.17h0ZM1543.33,236c0,63.33,51.67,70.83,78.33,70.83,9.17,0,14.17-.83,14.17-.83v-40.83s-3.33.83-8.33.83c-12.5,0-37.5-4.17-37.5-35v-73.33h42.5v-37.5h-42.5v-55h-45.83v54.17h-25.83v37.5h24.17l.83,79.17h0ZM1755.83,112.67c57.5,0,103.33,40.83,103.33,98.33s-45.83,98.33-103.33,98.33-103.33-40.83-103.33-98.33,46.67-98.33,103.33-98.33M1756.67,269.33c30,0,55.83-23.33,55.83-58.33s-25.83-58.33-55.83-58.33-55.83,24.17-55.83,58.33c-.83,35,25,58.33,55.83,58.33M1887.5,304.33h46.67v-85.83c0-9.17.83-17.5,3.33-25,6.67-22.5,25-38.33,50.83-38.33,24.17,0,30,15.83,30,38.33v111.67h46.67v-121.67c0-50-23.33-71.67-65-71.67-38.33,0-58.33,23.33-66.67,39.17h-.83s.83-5.83.83-12.5v-21.67h-45l-.83,187.5h0ZM1040.83,361c-76.67,0-134.17,58.33-134.17,134.17s55,136.67,135,136.67c66.67,0,102.5-42.5,102.5-42.5l-25-34.17s-30.83,33.33-75.83,33.33c-54.17,0-88.33-44.17-88.33-93.33s32.5-90,87.5-90c41.67,0,71.67,27.5,71.67,27.5l22.5-35c.83-1.67-31.67-36.67-95.83-36.67M1177.5,626.83h46.67v-86.67c0-9.17.83-16.67,3.33-24.17,6.67-22.5,25.83-39.17,50.83-39.17s30,15.83,30,38.33v111.67h46.67v-120.83c0-50-23.33-71.67-65-71.67-32.5,0-55.83,19.17-65,37.5h-.83s.83-6.67.83-15.83v-90.83h-46.67l-.83,261.67h0ZM1659.17,434.33c40.83,0,54.17,24.17,54.17,24.17h.83v-93.33h46.67v261.67h-44.17v-15.83c0-6.67.83-12.5.83-12.5h-.83s-15.83,31.67-59.17,31.67c-50.83,0-83.33-40-83.33-98.33s35.83-97.5,85-97.5M1668.33,591.83c24.17,0,47.5-17.5,47.5-59.17,0-29.17-15.83-57.5-46.67-57.5-25.83,0-47.5,20.83-47.5,58.33,0,35,19.17,58.33,46.67,58.33M1805,626.83h46.67v-74.17c0-10.83.83-21.67,4.17-30.83,9.17-28.33,31.67-39.17,50.83-39.17,6.67,0,10.83.83,10.83.83v-45.83s-4.17-.83-8.33-.83c-28.33,0-50.83,21.67-60,48.33h-.83s.83-6.67.83-13.33v-32.5h-45l.83,187.5h0ZM2024.17,434.33c54.17,0,83.33,39.17,83.33,89.17,0,5.83-.83,18.33-.83,18.33h-130c3.33,32.5,28.33,50,56.67,50,30,0,54.17-20.83,54.17-20.83l18.33,33.33s-28.33,26.67-75.83,26.67c-62.5,0-100.83-45-100.83-98.33-.83-57.5,39.17-98.33,95-98.33M2060,509.33c-.83-25.83-16.67-39.17-37.5-39.17-24.17,0-40.83,15-45,39.17h82.5ZM2142.5,626.83h46.67v-86.67c0-9.17.83-17.5,3.33-25,6.67-22.5,25.83-38.33,50.83-38.33s30,15.83,30,38.33v111.67h46.67v-120.83c0-50-23.33-71.67-65-71.67-38.33,0-58.33,23.33-66.67,39.17h-.83s.83-5.83.83-12.5v-21.67h-45l-.83,187.5h0ZM2355,603.5s25.83,27.5,73.33,27.5c45,0,71.67-25,71.67-56.67,0-60.83-91.67-57.5-91.67-83.33,0-11.67,11.67-16.67,24.17-16.67,28.33,0,45.83,15.83,45.83,15.83l17.5-35s-20.83-21.67-63.33-21.67-71.67,20-71.67,55c0,60,91.67,56.67,91.67,85,0,10.83-11.67,16.67-25,16.67-30.83,0-50.83-20.83-50.83-20.83l-21.67,34.17ZM929.17,948.5h47.5v-110h120v110h47.5v-261.67h-47.5v110.83h-120v-110.83h-47.5v261.67h0ZM1280.83,756c57.5,0,103.33,40.83,103.33,98.33s-45.83,98.33-103.33,98.33-103.33-40.83-103.33-98.33c.83-56.67,46.67-98.33,103.33-98.33M1281.67,913.5c30,0,55.83-23.33,55.83-58.33s-25.83-58.33-55.83-58.33-55.83,24.17-55.83,58.33,25,58.33,55.83,58.33M1399.17,925.17s25.83,27.5,73.33,27.5c44.17,0,71.67-25,71.67-56.67,0-60-91.67-57.5-91.67-83.33,0-11.67,11.67-16.67,24.17-16.67,28.33,0,45.83,15.83,45.83,15.83l17.5-35s-20.83-21.67-63.33-21.67-71.67,20-71.67,55c0,60.83,91.67,56.67,91.67,85,0,10.83-11.67,16.67-25,16.67-30.83,0-50.83-20.83-50.83-20.83l-21.67,34.17h0ZM1573.33,761h42.5v13.33c0,6.67-.83,12.5-.83,12.5h.83s15.83-30.83,60.83-30.83c50.83,0,83.33,40,83.33,98.33s-36.67,98.33-85.83,98.33c-37.5,0-54.17-25.83-54.17-25.83h-.83s.83,6.67.83,15.83v79.17h-46.67v-260.83ZM1665.83,913.5c25.83,0,47.5-20.83,47.5-58.33s-19.17-59.17-46.67-59.17c-24.17,0-47.5,17.5-47.5,59.17,0,30,15.83,58.33,46.67,58.33M1894.17,880.17c0,63.33,51.67,70.83,78.33,70.83,9.17,0,14.17-.83,14.17-.83v-41.67s-3.33.83-8.33.83c-12.5,0-37.5-4.17-37.5-35v-73.33h42.5v-37.5h-42.5v-54.17h-45.83v54.17h-25v37.5h24.17v79.17h0ZM2120,831h6.67v-2.5c0-25-15.83-33.33-35.83-33.33-26.67,0-51.67,18.33-51.67,18.33l-17.5-33.33s29.17-23.33,73.33-23.33c49.17,0,78.33,27.5,78.33,75v117.5h-43.33v-15.83c0-7.5.83-13.33.83-13.33h-.83s-14.17,33.33-57.5,33.33c-33.33,0-64.17-20.83-64.17-58.33.83-60,81.67-64.17,111.67-64.17M2085,916.83c25,0,42.5-26.67,42.5-49.17v-4.17h-8.33c-24.17,0-62.5,3.33-62.5,29.17,0,12.5,9.17,24.17,28.33,24.17M1495.83,626.83h46.67v-261.67h-46.67v261.67h0ZM2212.5,947.67h46.67v-260.83h-46.67v260.83h0ZM2379.17,389.33c0-13.33-10.83-24.17-24.17-24.17s-24.17,10.83-24.17,24.17,10.83,24.17,24.17,24.17,24.17-10.83,24.17-24.17M2339.17,436.83c50-14.17,40-53.33,40-53.33l-15,4.17c0,.83,6.67,24.17-28.33,34.17l3.33,15M1399.17,626.83h46.67v-188.33h-46.67v188.33ZM1449.17,389.33c0-14.17-11.67-26.67-26.67-26.67-14.17,0-26.67,11.67-26.67,26.67,0,14.17,11.67,26.67,26.67,26.67,15-.83,26.67-12.5,26.67-26.67M1790.83,948.5h46.67v-188.33h-46.67v188.33ZM1840.83,711c0-14.17-11.67-26.67-26.67-26.67-14.17,0-26.67,11.67-26.67,26.67,0,14.17,11.67,25.83,26.67,25.83s26.67-11.67,26.67-25.83"/>
</svg>